<?xml version="1.0" standalone="no"?>
<!DOCTYPE svg PUBLIC "-//W3C//DTD SVG 1.1//EN" "http://www.w3.org/Graphics/SVG/1.1/DTD/svg11.dtd" >
<svg xmlns="http://www.w3.org/2000/svg">
<metadata>Generated by IcoMoon</metadata>
<defs>
<font id="planetposen-icons" horiz-adv-x="1024">
<font-face units-per-em="1024" ascent="960" descent="-64" />
<missing-glyph horiz-adv-x="1024" />
<glyph unicode="&#x20;" horiz-adv-x="512" d="" />
<glyph unicode="&#xe900;" glyph-name="basket-outline" d="M835.142 519.809v215.428c0 78.99-64.629 143.619-143.619 143.619h-359.046c-78.99 0-143.619-64.629-143.619-143.619v-215.428h-179.523l117.812-436.017c10.547-38.149 45.779-66.648 87.742-66.648h593.998c41.964 0 77.195 28.050 88.191 66.2l117.587 436.465h-179.523zM967.54 483.904h0.225l-28.948-107.714h-175.484v107.714h204.208zM95.057 340.286h165.61v-143.619h-126.788l-38.822 143.619zM296.572 340.286h197.476v-143.619h-197.476v143.619zM727.428 376.191h-197.476v107.714h197.476v-107.714zM494.047 376.191h-197.476v107.714h197.476v-107.714zM494.047 160.763v-107.714h-197.476v107.714h197.476zM529.953 160.763h197.476v-107.714h-197.476v107.714zM529.953 196.668v143.619h197.476v-143.619h-197.476zM763.332 340.286h165.834l-38.597-143.619h-127.237v143.619zM224.763 735.237c0 28.724 11.221 55.652 31.641 76.073s47.35 31.641 76.073 31.641h359.046c28.724 0 55.652-11.221 76.073-31.641s31.641-47.35 31.641-76.073v-215.428h-574.474v215.428zM260.668 483.904v-107.714h-175.259l-29.172 107.714h204.432zM161.93 93.218l-18.401 67.546h117.139v-107.714h-45.779c-24.685 0-46.451 16.382-52.959 40.168zM862.743 92.993c-6.957-23.562-28.948-39.944-53.633-39.944h-45.779v107.714h117.587l-18.176-67.77z" />
<glyph unicode="&#xe901;" glyph-name="basket" d="M835.142 519.809v215.428c0 78.99-64.629 143.619-143.619 143.619h-359.046c-78.99 0-143.619-64.629-143.619-143.619v-215.428h-179.523l117.812-436.017c10.547-38.149 45.779-66.648 87.742-66.648h593.998c41.964 0 77.195 28.050 88.191 66.2l117.587 436.465h-179.523zM224.763 735.237c0 28.724 11.221 55.652 31.641 76.073s47.35 31.641 76.073 31.641h359.046c28.724 0 55.652-11.221 76.073-31.641s31.641-47.35 31.641-76.073v-215.428h-574.474v215.428zM929.167 340.286h-165.834v-143.619h127.237l-9.65-35.904h-117.587v-107.714h-35.904v107.714h-197.476v-107.714h-35.904v107.714h-197.476v-107.714h-35.904v107.714h-117.139l-9.65 35.904h126.788v143.619h-165.61l-9.65 35.904h175.259v107.714h35.904v-107.714h197.476v107.714h35.904v-107.714h197.476v107.714h35.904v-107.714h175.484l-9.65-35.904zM529.953 340.286h197.476v-143.619h-197.476zM296.572 340.286h197.476v-143.619h-197.476z" />
<glyph unicode="&#xe902;" glyph-name="card-outline" d="M935.451 794.461h-846.903c-42.345 0-76.991-34.646-76.991-76.991v-538.938c0-42.345 34.646-76.991 76.991-76.991h846.903c42.345 0 76.991 34.646 76.991 76.991v538.938c0 42.345-34.646 76.991-76.991 76.991zM88.549 755.965h846.903c21.173 0 38.496-17.323 38.496-38.496v-76.991h-923.894v76.991c0 21.173 17.323 38.496 38.496 38.496zM973.946 601.982v-115.487h-923.894v115.487h923.894zM935.451 140.035h-846.903c-21.173 0-38.496 17.323-38.496 38.496v269.469h923.894v-269.469c0-21.173-17.323-38.496-38.496-38.496zM127.044 294.018h76.991v-38.496h-76.991zM281.026 294.018h461.946v-38.496h-461.946z" />
<glyph unicode="&#xe903;" glyph-name="card" d="M935.451 794.461h-846.903c-42.345 0-76.991-34.646-76.991-76.991v-538.938c0-42.345 34.646-76.991 76.991-76.991h846.903c42.345 0 76.991 34.646 76.991 76.991v538.938c0 42.345-34.646 76.991-76.991 76.991zM88.549 755.965h846.903c21.173 0 38.496-17.323 38.496-38.496v-76.991h-923.894v76.991c0 21.173 17.323 38.496 38.496 38.496zM935.451 140.035h-846.903c-21.173 0-38.496 17.323-38.496 38.496v269.469h923.894v-269.469c0-21.173-17.323-38.496-38.496-38.496zM127.044 294.018h76.991v-38.496h-76.991zM281.026 294.018h461.946v-38.496h-461.946z" />
<glyph unicode="&#xe904;" glyph-name="cart-outline" d="M260.001 70.001c-34.776 0-63-28.224-63-63s28.224-63 63-63 63 28.224 63 63-28.224 63-63 63zM260.001-13.998c-11.576 0-21 9.423-21 21s9.423 21 21 21 21-9.423 21-21-9.423-21-21-21zM849.312 70.001c-34.776 0-63-28.224-63-63s28.224-63 63-63 63 28.224 63 63-28.224 63-63 63zM849.312-13.998c-11.576 0-21 9.423-21 21s9.423 21 21 21 21-9.423 21-21-9.423-21-21-21zM1015.999 783.999l-852.658 84.929c-4.273 18.301-11.471 38.482-31.075 54.251-24.452 19.659-63.942 28.819-124.264 28.819v-42c48.861 0 81.813-6.581 97.944-19.551 11.702-9.411 14.816-22.11 18.808-41.974l-0.063-0.008 110.387-613.303c6.334-37.852 18.884-66.17 34.886-86.585 19.029-24.271 43.939-36.576 74.038-36.576h629.998v42h-629.998c-12.408 0-50.232-0.323-67.594 88.606l-14.249 79.17 711.84 126.223 42 335.999zM938.797 483.836l-684.073-120.723-83.299 462.786 797.656-80.345-30.284-261.717z" />
<glyph unicode="&#xe905;" glyph-name="cart" d="M260.001 70.001c-34.776 0-63-28.224-63-63s28.224-63 63-63 63 28.224 63 63-28.224 63-63 63zM849.312 70.001c-34.776 0-63-28.224-63-63s28.224-63 63-63 63 28.224 63 63-28.224 63-63 63zM1015.999 783.999l-852.658 84.929c-4.273 18.301-11.471 38.482-31.075 54.251-24.452 19.659-63.942 28.819-124.264 28.819v-42c48.861 0 81.813-6.581 97.944-19.551 11.702-9.411 14.816-22.11 18.808-41.974l-0.063-0.008 110.387-613.303c6.334-37.852 18.884-66.17 34.886-86.585 19.029-24.271 43.939-36.576 74.038-36.576h629.998v42h-629.998c-12.408 0-50.232-0.323-67.594 88.606l-14.249 79.17 711.84 126.223 42 335.999z" />
<glyph unicode="&#xe906;" glyph-name="cash-outline" d="M29.088 197.601h965.825v-35.771h-965.825zM46.973 126.058h930.053v-35.771h-930.053zM11.202 805.713v-572.341h1001.596v572.341h-1001.596zM977.027 269.144h-930.053v500.798h930.053v-500.798zM798.17 734.17h143.085v-35.771h-143.085zM798.17 340.686h143.085v-35.771h-143.085zM82.745 734.17h143.085v-35.771h-143.085zM82.745 340.686h143.085v-35.771h-143.085zM512 358.571c-88.758 0-160.97 72.214-160.97 160.97s72.214 160.97 160.97 160.97 160.97-72.214 160.97-160.97-72.214-160.97-160.97-160.97zM512 644.742c-69.084 0-125.199-56.116-125.199-125.199s56.116-125.199 125.199-125.199 125.199 56.116 125.199 125.199-56.116 125.199-125.199 125.199z" />
<glyph unicode="&#xe907;" glyph-name="cash" d="M29.088 197.601h965.825v-35.771h-965.825zM46.973 126.058h930.053v-35.771h-930.053zM512 644.742c-69.084 0-125.199-56.116-125.199-125.199s56.116-125.199 125.199-125.199 125.199 56.116 125.199 125.199-56.116 125.199-125.199 125.199zM11.202 805.713v-572.341h1001.596v572.341h-1001.596zM225.83 304.915h-143.085v35.771h143.085v-35.771zM225.83 698.399h-143.085v35.771h143.085v-35.771zM512 358.571c-88.758 0-160.97 72.214-160.97 160.97s72.214 160.97 160.97 160.97 160.97-72.214 160.97-160.97-72.214-160.97-160.97-160.97zM941.255 304.915h-143.085v35.771h143.085v-35.771zM941.255 698.399h-143.085v35.771h143.085v-35.771z" />
<glyph unicode="&#xe908;" glyph-name="close-circle-outline" d="M868.368 804.368c-196.717 196.717-515.777 196.717-712.737 0s-196.717-515.777 0-712.737c196.717-196.717 515.777-196.717 712.737 0s196.717 516.019 0 712.737zM838.57 121.43c-180.001-180.001-473.139-180.001-653.14 0s-180.001 473.139 0 653.14 473.139 180.001 653.14 0c180.243-180.001 180.243-473.139 0-653.14zM715.985 680.572l-204.469-203.985-203.501 203.016-28.587-28.587 203.501-203.016-203.501-203.016 28.587-28.587 203.501 203.016 204.469-203.985 28.587 28.587-204.469 203.985 204.469 203.985z" />
<glyph unicode="&#xe909;" glyph-name="close-circle" d="M868.368 804.368c-196.717 196.717-515.777 196.717-712.737 0s-196.717-515.777 0-712.737c196.717-196.717 515.777-196.717 712.737 0s196.717 516.019 0 712.737zM744.572 244.015l-28.587-28.587-204.469 203.985-203.501-203.016-28.587 28.587 203.501 203.016-203.501 203.016 28.587 28.587 203.501-203.016 204.469 203.985 28.587-28.587-204.469-203.985 204.469-203.985z" />
<glyph unicode="&#xe90a;" glyph-name="arrow-back" d="M814.454 850.013l-101.764 102.079-503.146-504.091 503.146-504.091 101.764 102.079-401.067 402.013z" />
<glyph unicode="&#xe90b;" glyph-name="at-outline" d="M867.8 270.8c-65.8-127.6-195.2-206.8-337.6-206.8-101 0-194.6 39.8-263.8 112.2-68.8 72-106.6 168.4-106.6 271.8s37.8 199.8 106.6 271.8c69.2 72.4 163 112.2 263.8 112.2 101.8 0 187.8-38.6 242.2-108.4 52.6-67.6 69-156.2 46.4-249.8-21.8-90.2-67-131.6-101-150.4-35-19.4-83.6-26.8-104.8-8.8-0.6 0.6-1.2 1.2-1.6 1.8-3 3.8-4.6 10.8-4.8 17s0.4 13.4 2 21.4c1.6 8 3.8 16.8 6.4 25.4l77.2 233.8h-42.6l-20-53c-9.2 24.2-21.2 41.6-36.2 52-15 10.6-31.4 15.8-49 15.8-28.4 0-54.4-7-77.8-20.8-23.6-13.8-43.6-31.8-60.2-54.2s-29.4-47.6-38.6-75.4c-9.2-27.8-13.6-55.8-13.6-83.8 0-16.2 2.4-31.4 7.2-45.4s11.8-26.4 20.8-37.2c9-10.8 20.2-19.4 33.4-25.6s28-9.4 44.6-9.4c20.4 0 39.4 5.4 57 16.8s32.6 24.2 45 36.2h1.6c1.6-18 9.4-31 19.6-40.2 5.2-4.6 12.6-9 22.2-12.2v-0.2c42.2-14.4 84.2-6 127.6 18 39.6 22 92.2 69.4 116.6 171 25 103.2 6.4 201.6-52.4 277.2-60.4 77.6-155.4 120.4-267.2 120.4-109.6 0-211.4-43.4-286.6-122-74.6-78-115.6-182.4-115.6-294s41-216 115.6-294c75.2-78.8 177.2-122 286.6-122 154.2 0 294.4 85.8 365.8 224l-28.2 14.8zM567 387.2c-12.2-19.6-26.6-36-43-49.6-16.4-13.4-34-20.2-53.2-20.2-19.6 0-35.8 7.2-48.6 21.4-12.8 14.4-19.2 33.8-19.2 58.6 0 19.2 3.2 40 9.8 62.4 6.6 22.2 16 43 28.2 62s27 34.8 44.2 47.4c17.2 12.6 36.2 19 56.8 19 8.2 0 16-2.2 23.8-6.6 7.6-4.4 14.4-10.2 20.4-17.4s11-15.2 14.8-24.4c3.8-9 5.8-18.6 5.8-28.4 0-18.2-3.6-38.6-10.6-61.2-7.2-22.4-17-43.4-29.2-63z" />
<glyph unicode="&#xe90c;" glyph-name="at" d="M768 775.8c10.6-10 20.4-21 29.4-32.6 58.8-75.4 77.4-173.8 52.4-277.2-24.6-101.4-77-149-116.6-171-43.4-24-85.4-32.4-127.6-18v0.2c-9.6 3.2-17 7.6-22.2 12.2-10.2 9.2-18 22.2-19.6 40.2h-1.6c-12.4-12-27.2-24.8-45-36.2s-36.6-16.8-57-16.8c-16.6 0-31.4 3-44.6 9.4-13.2 6.2-24.2 14.8-33.4 25.6s-16 23.2-20.8 37.2c-4.8 14-7.2 29.2-7.2 45.4 0 28 4.6 56 13.6 83.8s22 53 38.6 75.4c16.6 22.4 36.6 40.6 60.2 54.2 23.6 13.8 49.4 20.8 77.8 20.8 17.6 0 34-5.2 49-15.8s27-27.8 36.2-52l20 53h42.6l-77-233.6c-2.6-8.6-4.8-17.4-6.4-25.4s-2.2-15.2-2-21.4c0.2-6.2 1.8-13.2 4.8-17 0.4-0.6 1-1.2 1.6-1.8 21.2-18.2 69.8-10.6 104.8 8.8 34.2 18.8 79.4 60.2 101 150.4 22.6 93.6 6 182.2-46.4 249.8-45.6 58.4-109.2 117.6-193.6 133-27.8 5-44.2 7.6-67 7.6-229.8 0-416-186.2-416-416s186.2-416 416-416 416 186.2 416 416c0 133.2-62.6 251.8-160 327.8zM422.2 338.8c12.8-14.2 29-21.4 48.6-21.4 19.2 0 36.8 6.8 53.2 20.2 16.4 13.6 30.8 30 43 49.6s22 40.6 29 63.2 10.6 43 10.8 61c0 9.8-2 19.4-5.8 28.4-2 4.6-4.2 9-6.6 13.2-2.4 4-5.2 7.8-8.2 11.4-6 7.2-12.8 13-20.4 17.4s-15.6 6.6-23.8 6.6c-20.8 0-39.6-6.4-56.8-19s-32-28.4-44.2-47.4c-12.2-19-21.6-39.6-28.2-62-6.6-22.2-9.8-43-9.8-62.4v-0.2c0-24.8 6.4-44.2 19.2-58.6z" />
<glyph unicode="&#xe90d;" glyph-name="arrow-down" d="M114.315 747.2l-100.98-100.668 498.664-497.729 498.664 497.729-100.98 100.668-397.685-396.75z" />
<glyph unicode="&#xe90e;" glyph-name="arrow-up1" d="M528 208v441.4l148.8-132.6c6.8-5.8 16.2-6.4 22.4-0.2s6.6 17 0.2 22.8l-176 160c-0.4 0.4-0.8 0.8-1.2 1-0.2 0.2-0.4 0.2-0.6 0.4s-0.4 0.4-0.8 0.6c-0.2 0.2-0.4 0.2-0.6 0.4s-0.4 0.2-0.6 0.4c-0.2 0.2-0.4 0.2-0.8 0.4-0.2 0.2-0.4 0.2-0.6 0.4-0.2 0-0.4 0.2-0.8 0.2-0.2 0-0.6 0.2-0.8 0.2s-0.4 0.2-0.8 0.2c-0.2 0-0.6 0.2-0.8 0.2s-0.6 0-0.8 0.2h-0.6c-1 0.2-2.2 0.2-3.2 0h-0.6c-0.2 0-0.6 0-0.8-0.2-0.2 0-0.6-0.2-0.8-0.2s-0.4-0.2-0.8-0.2c-0.2 0-0.6-0.2-0.8-0.2s-0.4-0.2-0.8-0.2c-0.2 0-0.4-0.2-0.6-0.4s-0.4-0.2-0.8-0.4c-0.2-0.2-0.4-0.2-0.6-0.4s-0.4-0.2-0.6-0.4c-0.2-0.2-0.4-0.4-0.8-0.6-0.2-0.2-0.4-0.2-0.6-0.4-0.4-0.4-0.8-0.6-1.2-1l-176-160c-3.4-3.2-4.6-7.2-4.6-11.4 0-4 1.6-8.2 4.6-11.4 6.2-6.2 16-6 22.6 0l148.6 132.6v-441.2c0-8.8 7.2-16 16-16 9 0 16.2 7.2 16.2 16z" />
<glyph unicode="&#xe90f;" glyph-name="arrow-dropdown" d="M737.83 564.308l31.016-33.438-256.845-276.715-256.845 276.715 31.016 33.438 225.83-243.276zM512 951.999c-278.411 0-503.999-225.588-503.999-503.999s225.588-503.999 503.999-503.999 503.999 225.588 503.999 503.999-225.588 503.999-503.999 503.999zM512 910.079c254.665 0 462.079-207.173 462.079-462.079 0-254.665-207.173-462.079-462.079-462.079-254.665 0-462.079 207.173-462.079 462.079 0 254.665 207.415 462.079 462.079 462.079z" />
<glyph unicode="&#xe910;" glyph-name="arrow-dropleft-circle" d="M512 951.999c-278.411 0-503.999-225.588-503.999-503.999s225.588-503.999 503.999-503.999 503.999 225.588 503.999 503.999-225.588 503.999-503.999 503.999zM628.308 222.17l-33.438-31.016-276.715 256.845 276.715 256.845 33.438-31.016-243.276-225.83 243.276-225.83z" />
<glyph unicode="&#xe911;" glyph-name="arrow-dropleft" d="M628.308 673.83l-33.438 31.016-276.715-256.845 276.715-256.845 33.438 31.016-243.276 225.83zM512 951.999c-278.411 0-503.999-225.588-503.999-503.999s225.588-503.999 503.999-503.999 503.999 225.588 503.999 503.999-225.588 503.999-503.999 503.999zM512-14.079c-254.665 0-462.079 207.173-462.079 462.079 0 254.665 207.173 462.079 462.079 462.079 254.665 0 462.079-207.173 462.079-462.079 0-254.665-207.415-462.079-462.079-462.079z" />
<glyph unicode="&#xe912;" glyph-name="arrow-dropright-circle" d="M8.001 448c0-278.411 225.588-503.999 503.999-503.999s503.999 225.588 503.999 503.999-225.588 503.999-503.999 503.999-503.999-225.588-503.999-503.999zM638.969 448l-243.276 225.83 33.438 31.016 276.715-256.845-276.715-256.845-33.438 31.016 243.276 225.83z" />
<glyph unicode="&#xe913;" glyph-name="checkmark-circle-outline" d="M715.78 638.696l-302.399-304.58-114.369 114.369-43.13-43.13 135.692-135.692c6.058-6.058 14.296-10.904 21.566-10.904s15.266 4.846 21.323 10.662l323.965 325.661-42.646 43.616zM512 951.999c-278.411 0-503.999-225.588-503.999-503.999s225.588-503.999 503.999-503.999 503.999 225.588 503.999 503.999-225.588 503.999-503.999 503.999zM512-14.079c-254.665 0-462.079 207.173-462.079 462.079 0 254.665 207.173 462.079 462.079 462.079 254.665 0 462.079-207.173 462.079-462.079 0-254.665-207.415-462.079-462.079-462.079z" />
<glyph unicode="&#xe914;" glyph-name="checkmark-circle" d="M512 951.999c-278.411 0-503.999-225.588-503.999-503.999s225.588-503.999 503.999-503.999 503.999 225.588 503.999 503.999-225.588 503.999-503.999 503.999zM434.22 269.42c-5.816-5.816-14.054-10.662-21.323-10.662s-15.508 5.088-21.566 10.904l-135.692 135.692 43.13 43.13 114.369-114.369 302.399 304.58 42.404-43.858-323.723-325.419z" />
<glyph unicode="&#xe915;" glyph-name="arrow-dropright" d="M395.692 673.83l33.438 31.016 276.715-256.845-276.715-256.845-33.438 31.016 243.276 225.83zM8.001 448c0-278.411 225.588-503.999 503.999-503.999s503.999 225.588 503.999 503.999-225.588 503.999-503.999 503.999-503.999-225.588-503.999-503.999zM49.921 448c0 254.665 207.173 462.079 462.079 462.079 254.665 0 462.079-207.173 462.079-462.079 0-254.665-207.173-462.079-462.079-462.079-254.665 0-462.079 207.415-462.079 462.079z" />
<glyph unicode="&#xe916;" glyph-name="arrow-dropup-circle" d="M512-55.999c278.411 0 503.999 225.588 503.999 503.999s-225.588 503.999-503.999 503.999-503.999-225.588-503.999-503.999 225.588-503.999 503.999-503.999zM512 574.969l-225.83-243.276-31.016 33.438 256.845 276.715 256.845-276.715-31.016-33.438-225.83 243.276z" />
<glyph unicode="&#xe917;" glyph-name="arrow-dropup" d="M286.17 331.692l-31.016 33.438 256.845 276.715 256.845-276.715-31.016-33.438-225.83 243.276zM512-55.999c278.411 0 503.999 225.588 503.999 503.999s-225.588 503.999-503.999 503.999-503.999-225.588-503.999-503.999 225.588-503.999 503.999-503.999zM512-14.079c-254.665 0-462.079 207.173-462.079 462.079 0 254.665 207.173 462.079 462.079 462.079 254.665 0 462.079-207.173 462.079-462.079 0-254.665-207.415-462.079-462.079-462.079z" />
<glyph unicode="&#xe918;" glyph-name="arrow-forward" d="M610.613 448l-401.067-402.013 101.764-102.079 503.146 504.091-503.146 504.091-101.764-102.079z" />
<glyph unicode="&#xe919;" glyph-name="arrow-up" d="M909.685 148.801l100.98 100.668-498.664 497.729-498.664-497.729 100.98-100.668 397.685 396.75z" />
<glyph unicode="&#xe91a;" glyph-name="arrow-forward1" d="M272 432h441.4l-132.6-148.8c-5.8-6.8-6.4-16.2-0.2-22.4s17-6.6 22.8-0.2l160 176c0.4 0.4 0.8 0.8 1 1.2 0.2 0.2 0.2 0.4 0.4 0.6s0.4 0.4 0.6 0.8c0.2 0.2 0.2 0.4 0.4 0.6s0.2 0.4 0.4 0.6c0.2 0.2 0.2 0.4 0.4 0.8 0.2 0.2 0.2 0.4 0.4 0.6 0 0.2 0.2 0.4 0.2 0.8 0 0.2 0.2 0.6 0.2 0.8s0.2 0.4 0.2 0.8c0 0.2 0.2 0.6 0.2 0.8s0 0.6 0.2 0.8v0.6c0.2 1 0.2 2.2 0 3.2v0.6c0 0.2 0 0.6-0.2 0.8 0 0.2-0.2 0.6-0.2 0.8s-0.2 0.4-0.2 0.8c0 0.2-0.2 0.6-0.2 0.8s-0.2 0.4-0.2 0.8c0 0.2-0.2 0.4-0.4 0.6s-0.2 0.4-0.4 0.8c-0.2 0.2-0.2 0.4-0.4 0.6s-0.2 0.4-0.4 0.6c-0.2 0.2-0.4 0.4-0.6 0.8-0.2 0.2-0.2 0.4-0.4 0.6-0.4 0.4-0.6 0.8-1 1.2l-160 176c-3.2 3.4-7.2 4.6-11.4 4.6-4 0-8.2-1.6-11.4-4.6-6.2-6.2-6-16 0-22.6l132.6-148.6h-441.2c-8.8 0-16-7.2-16-16 0-9 7.2-16.2 16-16.2z" />
<glyph unicode="&#xe91b;" glyph-name="arrow-down1" d="M496 688v-441.4l-148.8 132.6c-6.8 5.8-16.2 6.4-22.4 0.2s-6.6-17-0.2-22.8l176-160c0.4-0.4 0.8-0.8 1.2-1 0.2-0.2 0.4-0.2 0.6-0.4s0.4-0.4 0.8-0.6c0.2-0.2 0.4-0.2 0.6-0.4s0.4-0.2 0.6-0.4c0.2-0.2 0.4-0.2 0.8-0.4 0.2-0.2 0.4-0.2 0.6-0.4 0.2 0 0.4-0.2 0.8-0.2 0.2 0 0.6-0.2 0.8-0.2s0.4-0.2 0.8-0.2c0.2 0 0.6-0.2 0.8-0.2s0.6 0 0.8-0.2h0.6c1-0.2 2.2-0.2 3.2 0h0.6c0.2 0 0.6 0 0.8 0.2 0.2 0 0.6 0.2 0.8 0.2s0.4 0.2 0.8 0.2c0.2 0 0.6 0.2 0.8 0.2s0.4 0.2 0.8 0.2c0.2 0 0.4 0.2 0.6 0.4s0.4 0.2 0.8 0.4c0.2 0.2 0.4 0.2 0.6 0.4s0.4 0.2 0.6 0.4c0.2 0.2 0.4 0.4 0.8 0.6 0.2 0.2 0.4 0.2 0.6 0.4 0.4 0.4 0.8 0.6 1.2 1l176 160c3.4 3.2 4.6 7.2 4.6 11.4 0 4-1.6 8.2-4.6 11.4-6.2 6.2-16 6-22.6 0l-148.8-132.8v441.4c0 8.8-7.2 16-16 16s-16-7.2-16-16z" />
<glyph unicode="&#xe91c;" glyph-name="add-circle" d="M512 951.999c-278.411 0-503.999-225.588-503.999-503.999s225.588-503.999 503.999-503.999 503.999 225.588 503.999 503.999-225.588 503.999-503.999 503.999zM822.153 428.616h-290.769v-290.769h-38.769v290.769h-290.769v38.769h290.769v290.769h38.769v-290.769h290.769v-38.769z" />
<glyph unicode="&#xe91d;" glyph-name="add-circle-outline" d="M512 951.999c-278.411 0-503.999-225.588-503.999-503.999s225.588-503.999 503.999-503.999 503.999 225.588 503.999 503.999-225.588 503.999-503.999 503.999zM512-14.079c-254.665 0-462.079 207.173-462.079 462.079s207.415 462.079 462.079 462.079 462.079-207.415 462.079-462.079-207.415-462.079-462.079-462.079zM531.384 758.153h-38.769v-290.769h-290.769v-38.769h290.769v-290.769h38.769v290.769h290.769v38.769h-290.769z" />
<glyph unicode="&#xe91e;" glyph-name="add" d="M1024 416h-480v-480h-64v480h-480v64h480v480h64v-480h480v-64z" />
<glyph unicode="&#xe91f;" glyph-name="arrow-back1" d="M752 464h-441.4l132.6 148.8c5.8 6.8 6.4 16.2 0.2 22.4s-17 6.6-22.8 0.2l-160-176c-0.4-0.4-0.8-0.8-1-1.2-0.2-0.2-0.2-0.4-0.4-0.6s-0.4-0.4-0.6-0.8c-0.2-0.2-0.2-0.4-0.4-0.6s-0.2-0.4-0.4-0.6c-0.2-0.2-0.2-0.4-0.4-0.8-0.2-0.2-0.2-0.4-0.4-0.6 0-0.2-0.2-0.4-0.2-0.8 0-0.2-0.2-0.6-0.2-0.8s-0.2-0.4-0.2-0.8c0-0.2-0.2-0.6-0.2-0.8s0-0.6-0.2-0.8v-0.6c-0.2-1-0.2-2.2 0-3.2v-0.6c0-0.2 0-0.6 0.2-0.8 0-0.2 0.2-0.6 0.2-0.8s0.2-0.4 0.2-0.8c0-0.2 0.2-0.6 0.2-0.8s0.2-0.4 0.2-0.8c0-0.2 0.2-0.4 0.4-0.6s0.2-0.4 0.4-0.8c0.2-0.2 0.2-0.4 0.4-0.6s0.2-0.4 0.4-0.6c0.2-0.2 0.4-0.4 0.6-0.8 0.2-0.2 0.2-0.4 0.4-0.6 0.4-0.4 0.6-0.8 1-1.2l160-176c3.2-3.4 7.2-4.6 11.4-4.6 4 0 8.2 1.6 11.4 4.6 6.2 6.2 6 16 0 22.6l-132.8 148.8h441.4c8.8 0 16 7.2 16 16s-7.2 16-16 16z" />
<glyph unicode="&#xe920;" glyph-name="bug-outline" d="M912 448c-9.2 0-18-2.6-25.2-7.2-10.8 4.8-28.8 10.6-54.8 12.2-0.6 55.4-11 108-29.2 155.4 17 12.6 31.6 28.8 42.6 47.6h2.6c26.4 0 48 21.4 48 48s-21.4 48-48 48c-26.4 0-48-21.4-48-48 0-14 6-26.6 15.6-35.4-6-9.6-14.6-20.2-26-29.8-55 115.4-158.8 193.2-277.6 193.2s-222.6-77.8-277.8-193c-11.4 9.6-19.8 20.2-25.8 29.8 9.6 8.8 15.6 21.4 15.6 35.4 0 26.6-21.4 48-48 48s-48-21.4-48-48 21.4-48 48-48h2.6c11.2-18.8 25.6-35 42.6-47.6-18.2-47.4-28.6-100-29.2-155.6-26.2-1.6-44-7.4-54.8-12.2-7.4 4.6-16 7.2-25.2 7.2-26.6 0-48-21.4-48-48s21.4-48 48-48 48 21.4 48 48c0 5-0.8 9.8-2.2 14.4 8 2.6 19.6 5.4 35 6.6 4.6-78 28.4-149.6 66-207.8-12-9-29.2-26-39.8-53.4-24.2-2.6-43-23-43-47.8 0-26.6 21.4-48 48-48s48 21.4 48 48c0 16.8-8.6 31.4-21.6 40 7.8 18 19 29 26.8 35 55-71.4 132.4-117.4 218.8-122.6 2.4-0.2 4.4-0.2 6.4-0.2h2c2.4 0 4.8-0.2 7.4-0.2s5 0 7.4 0.2h2c2 0 4.2 0.2 6.6 0.2 86.4 5.2 163.8 51.4 218.8 122.6 7.8-6 19-17 27-35.2-13-8.6-21.6-23.4-21.6-40 0-26.6 21.4-48 48-48 26.4 0 48 21.4 48 48 0 24.8-18.8 45.2-43 47.8-10.8 27.6-27.8 44.4-39.8 53.6 37.6 58.2 61.4 129.8 66 207.6 15.4-1 27-3.8 35-6.6-1.4-4.6-2.2-9.4-2.2-14.4 0-26.6 21.4-48 48-48s48 21.4 48 48-21.4 48.2-48 48.2zM848.2 720c8.8 0 16-7.2 16-16s-7.2-16-16-16-16 7.2-16 16 7 16 16 16zM176 688c-8.8 0-16 7.2-16 16s7.2 16 16 16 16-7.2 16-16-7.2-16-16-16zM112 384c-8.8 0-16 7.2-16 16s7.2 16 16 16 16-7.2 16-16-7.2-16-16-16zM224 96c-8.8 0-16 7.2-16 16s7.2 16 16 16 16-7.2 16-16-7.2-16-16-16zM800.2 128c8.8 0 16-7.2 16-16s-7.2-16-16-16-16 7.2-16 16 7.2 16 16 16zM512 800c88.8 0 168.4-49.4 221.4-127-11-18.8-24.4-36.4-40.4-52.2-48.4-48.4-112.6-75-181-75s-132.6 26.6-181 75c-15.8 15.8-29.4 33.4-40.4 52.2 53 77.6 132.6 127 221.4 127zM224 448c0 71.8 17.8 138.8 48 194.4 49-73.4 130.8-123.2 224-128.2v-417.8c-151.4 10.4-272 164-272 351.6zM528 96.6v417.6c93 5.2 175 54.8 224 128.2 30.4-55.8 48-122.6 48-194.6 0-187.4-120.6-341-272-351.2zM912 384c-8.8 0-16 7.2-16 16s7.2 16 16 16 16-7.2 16-16-7.2-16-16-16z" />
<glyph unicode="&#xe921;" glyph-name="bug" d="M749.2 705.4c-58.4 77.6-143 126.6-237.2 126.6s-178.8-49-237.2-126.6c12.8-31.2 31.6-60 56.2-84.6 48.4-48.4 112.6-75 181-75s132.6 26.6 181 75c24.6 24.6 43.6 53.2 56.2 84.6zM253.6 674.4c-3.4-5.6-6.8-11.4-10-17.2-5.8 3.6-10.6 7.4-15.4 11.6-2.4 2-6 7.8-9 14.8 10.8 22.6 2.4 50-19.8 62.6-23.2 13-52.4 4.8-65.4-18.4s-4.8-52.4 18.4-65.4c2.6-1.4 5-2.6 7.6-3.4 5.6-12.6 14.6-28.6 27-39 8.4-7 17.6-14.2 30.4-21.4-14.4-40.6-23.2-84.6-25-130.8-22-0.4-37.2-4.2-51-8.2-8.4-2.4-16.4-6.8-23.6-11.8-2 0.2-3.8 0.4-5.8 0.4-26.6 0-48-21.4-48-48s21.4-48 48-48c25.8 0 47 20.4 48 46 10 3 19.8 5.4 34.2 5.6 6.4-66 26.6-127 57.2-178.4-28.4-22-45.8-46-53.2-72.6 0 0-1.6-0.8-3.8-2.8-2-1.6-3.8-3.2-5.6-5.2-17.8-19.8-16.2-50 3.6-67.8s50-16.2 67.8 3.6c16.2 18 16.2 44.8 1.2 62.8 6.2 11.2 12.4 18 27.4 30 54.2-63.4 126.8-104 207.4-108.8v449.6c-106.6 5.8-197.8 69.6-242.6 160.2zM912 447.8c-2 0-4-0.2-5.8-0.4-7.2 5-15.4 9.2-23.6 11.8-13.8 4-28.8 7.8-51 8.2-2 46.2-10.8 90.4-25 130.8 12.8 7.2 22 14.4 30.4 21.4 12.4 10.4 21.4 26.6 27 39 2.6 1 5.2 2 7.6 3.4 23.2 13 31.4 42.2 18.4 65.4s-42.2 31.4-65.4 18.4c-22.2-12.4-30.6-39.8-19.8-62.6-3.2-6.8-6.8-12.8-9-14.8-4.8-4-9.6-7.8-15.4-11.6-3.2 5.8-6.6 11.6-10 17.2-44.8-90.6-135.8-154.2-242.4-160v-450c80.6 4.8 153.2 45.6 207.4 108.8 14.8-11.8 21.2-18.8 27.4-30-15-18-15-44.8 1.2-62.8 17.8-19.8 48-21.4 67.8-3.6s21.4 48 3.6 67.8c-1.8 2-3.6 3.6-5.6 5.2-2.2 1.8-3.8 2.8-3.8 2.8-7.4 26.6-24.8 50.6-53.2 72.6 30.6 51.4 50.8 112.4 57.2 178.4 14.4-0.2 24-2.6 34.2-5.6 1-25.6 22-46 48-46 26.6 0 48 21.4 48 48s-21.6 48.2-48.2 48.2z" />
<glyph unicode="&#xe922;" glyph-name="create-outline" d="M736 128h-576v544h448.234l32 32h-512.234v-608h640v480.234l-32-32zM475.246 391.832l-19.412 19.414 342.646 342.646-22.626 22.628-359.854-359.82v-64.7h64.432l360.088 359.968-22.626 22.572zM888.426 799.376l-24.93 24.932c-5.328 4.76-12.384 7.692-20.004 7.692-7.662-0.006-14.64-2.93-19.883-7.721l0.023 0.021-24.298-24.3 64.786-64.786 24.3 24.3c4.764 5.25 7.58 12.234 7.58 19.86 0 7.62-2.816 14.676-7.574 20z" />
<glyph unicode="&#xe923;" glyph-name="eye-off-outline" d="M240.8 880l514.8-880 27.6 16-514.8 880zM512 672c-24.6 0-48-2.6-71-7.6l13.2-22.6c18.8 3.6 38 5.4 57.8 5.4 148 0 262-102.2 348-199.2-53.8-54.6-118.4-121.2-198-161.4l12.6-21.6c91.6 46.6 164.8 125.8 221.4 183-88.8 102.8-214.8 224-384 224zM512 248.8c-152.2 0-243.2 91.6-348 199.2 71.6 72.6 134 127.4 198.4 161l-12.6 21.6c-73-38.4-143.2-101.4-221.8-182.6 115.6-118.4 212.6-224 384-224 24.6 0 48.2 2.8 71 7.8l-13.2 22.6c-18.8-3.6-38-5.6-57.8-5.6zM626 348c24.6 26.4 39.6 61.6 39.6 100 0 82.4-68.8 149.4-153.6 149.4-10.2 0-20.4-1-30-2.8l13.4-23c5.4 0.6 11 1 16.6 1 70.6 0 128-55.8 128-124.4 0-29-10.2-55.8-27.4-77l13.4-23.2zM398 548c-24.6-26.4-39.6-61.6-39.6-100 0-82.4 68.8-149.4 153.6-149.4 10.4 0 20.4 1 30.2 2.8l-13.4 23c-5.4-0.6-11-1-16.6-1-70.6 0-128 55.8-128 124.4 0 29 10.2 55.8 27.4 77l-13.6 23.2zM432.8 488.6c-6.6-12.2-10.4-26-10.4-40.6 0-46.6 37.6-84.6 85-87l-16.6 28.2c-24.8 8.6-42.8 31.6-42.8 58.6 0 4.2 0.4 8.4 1.2 12.4l-16.4 28.4zM591.2 407.4c6.6 12.2 10.4 26 10.4 40.6h-25.6c0-4.2-0.4-8.4-1.2-12.4l16.4-28.2z" />
<glyph unicode="&#xe924;" glyph-name="eye-off" d="M240.8 880l514.8-880 27.6 16-514.8 880zM512 672c-24.6 0-48-2.6-71-7.6l40.8-70c9.8 1.8 19.8 2.8 30.2 2.8 84.8 0 153.6-67 153.6-149.4 0-38.4-15-73.4-39.6-100l48.6-83c91.6 46.6 164.8 125.8 221.4 183-88.8 103-214.8 224.2-384 224.2zM512 298.6c-84.8 0-153.6 67-153.6 149.4 0 38.4 15 73.4 39.6 100l-48.2 82.4c-73-38.2-143.2-101.2-221.8-182.4 115.6-118.4 212.6-224 384-224 24.6 0 48.2 2.8 71 7.8l-40.8 69.8c-9.8-2-19.8-3-30.2-3zM601.4 453.2c-7.8-3.4-16.4-5.2-25.4-5.2-3 0-6 0.2-8.8 0.6l24-41.2c6.6 12.2 10.4 26 10.4 40.6 0 1.8 0 3.6-0.2 5.2zM432.8 488.6c-6.6-12.2-10.4-26-10.4-40.6 0-46.6 37.6-84.6 85-87l-74.6 127.6z" />
<glyph unicode="&#xe925;" glyph-name="eye-outline" d="M894.2 447.6c-90.6 104.4-215.8 224.4-382.2 224.4-67.2 0-128.8-19-193.8-59.6-54.8-34.4-111-82.8-188.2-162.4l-2-2 13.4-13.8c110.2-112.8 205.4-210.2 370.6-210.2 73 0 143.8 23.8 216.4 72.8 61.8 41.8 114.4 94.8 156.6 137.6l11 11-1.8 2.2zM512 640c66.2 0 129.8-19 194.4-61.2 47.8-31.2 94.8-73.4 147.4-132.2-76.6-77.4-191.6-190.6-341.8-190.6-68.4 0-128.4 16.8-188.4 56.4-55 36.2-104.6 86.6-152.4 135.6 118.2 119.4 216.8 192 340.8 192zM512 288c88.2 0 160 71.8 160 160s-71.8 160-160 160-160-71.8-160-160 71.8-160 160-160zM512 575.4c70.4 0 128-57.2 128-127.4s-57.6-127.4-128-127.4-127.8 57.2-127.8 127.4 57.4 127.4 127.8 127.4zM576 448c0-35-28.8-64-63.6-64s-64.4 30.4-64.4 65.4 31.6 62.6 64 62.6v32c-53 0-95.8-43.2-95.8-96.4s43-96.2 95.8-96.2 96 43.2 96 96.2v0.4h-32z" />
<glyph unicode="&#xe926;" glyph-name="eye" d="M894.2 447.6c-90.6 104.4-215.8 224.4-382.2 224.4-67.2 0-128.8-19-193.8-59.6-54.8-34.4-111-82.8-188.2-162.4l-2-2 13.4-13.8c110.2-112.8 205.4-210.2 370.6-210.2 73 0 143.8 23.8 216.4 72.8 61.8 41.8 114.4 94.8 156.6 137.6l11 11-1.8 2.2zM512 288c-88.2 0-160 71.8-160 160s71.8 160 160 160 160-71.8 160-160-71.8-160-160-160zM500.8 506.4c0 13.8 4 26.8 11 37.6-53 0-95.8-43.2-95.8-96.4s43-96.2 95.8-96.2 96 43 96 96.2c-10.8-7-23.8-11-37.6-11-38.2 0.2-69.4 31.4-69.4 69.8z" />
<glyph unicode="&#xe927;" glyph-name="create" d="M512 320h-128v128l256 256h-512v-608h640v480zM775.854 776.52l-359.854-359.82v-64.7h64.432l360.088 359.968zM888.426 799.376l-24.93 24.932c-5.328 4.76-12.384 7.692-20.004 7.692-7.662-0.006-14.64-2.93-19.883-7.721l0.023 0.021-24.298-24.3 64.786-64.786 24.3 24.3c4.764 5.25 7.58 12.234 7.58 19.86 0 7.62-2.816 14.676-7.574 20z" />
<glyph unicode="&#xe928;" glyph-name="alert-outline" d="M512 864c-229.8 0-416-186.2-416-416s186.2-416 416-416 416 186.2 416 416-186.2 416-416 416zM512 66.6c-210.2 0-381.4 171-381.4 381.4 0 210.2 171 381.4 381.4 381.4 210.2 0 381.4-171 381.4-381.4 0-210.2-171.2-381.4-381.4-381.4zM512 293.8c-17.6 0-32-14.4-32-32s14.4-32 32-32 32 14.4 32 32-14.4 32-32 32zM488.4 493.6v178.4h48v-178.4l-12-141.6h-24l-12 141.6z" />
<glyph unicode="&#xe929;" glyph-name="alert" d="M512 864c-229.8 0-416-186.2-416-416s186.2-416 416-416 416 186.2 416 416-186.2 416-416 416zM488.4 672h48v-178.4l-12-141.6h-24l-12 141.6v178.4zM512 229.8c-17.6 0-32 14.4-32 32s14.4 32 32 32 32-14.4 32-32c0-17.8-14.4-32-32-32z" />
<glyph unicode="&#xe92a;" glyph-name="information-circle-outline" d="M543 616c0-22.091-17.909-40-40-40s-40 17.909-40 40c0 22.091 17.909 40 40 40s40-17.909 40-40zM544 272v256h-96v-16h32v-240h-32v-16h128v16zM512 864c-229.8 0-416-186.2-416-416s186.2-416 416-416 416 186.2 416 416-186.2 416-416 416zM512 66.6c-210.2 0-381.4 171-381.4 381.4 0 210.2 171 381.4 381.4 381.4 210.2 0 381.4-171 381.4-381.4 0-210.2-171.2-381.4-381.4-381.4z" />
<glyph unicode="&#xe92b;" glyph-name="information-circle" d="M512 864c-229.8 0-416-186.2-416-416s186.2-416 416-416 416 186.2 416 416-186.2 416-416 416zM503 656c22.2 0 40-18 40-40s-18-40-40-40-40 18-40 40 17.8 40 40 40zM576 256h-128v16h32v240h-32v16h96v-256h32v-16z" />
<glyph unicode="&#xe92c;" glyph-name="key-outline" d="M721.801 539.818c-32.221 0-63.231 0-92.302-9.933-125.008 104.416-454.971 380.111-480.167 405.792-11.628 11.871-24.468 16.231-37.066 16.231-21.077 0-41.185-12.598-52.571-23.258-16.959-15.989-62.019-64.927-49.664-77.524 37.066-37.309 66.38-64.2 81.643-79.462 11.628-11.628 32.464 1.938 47.484-7.995 13.324-8.722 24.226-23.984 35.37-35.128 12.84-13.082 21.804-18.897 21.562-38.035-0.242-20.108 1.212-33.432 15.263-48.453 11.386-12.114 22.046-18.412 38.52-18.655 22.288-0.484 36.097-5.815 50.633-23.984 13.809-17.201 5.087-34.402 11.871-53.298 4.361-12.356 38.762-43.85 43.608-48.695s26.649 0 32.221-5.573 41.669-38.277 44.092-49.422-7.268-21.804-4.845-32.948c2.907-13.567 17.443-29.314 25.68-42.154-16.474-37.551-25.68-78.978-25.68-122.828 0-165.951 131.791-300.407 294.108-300.407s294.35 134.456 294.35 300.407-131.791 295.32-294.108 295.32zM721.801-17.146c-140.997 0-255.589 117.498-255.589 261.644 0 37.309 7.51 73.405 22.288 107.081l8.479 19.139s-18.655 32.464-25.195 39.247c-6.541 6.541 5.329 31.736-1.454 40.215-7.025 8.479-47.484 61.051-59.839 73.405s-33.916 4.361-40.458 10.902c-6.541 6.541-17.685 19.139-21.077 25.195-0.484 1.938-0.484 5.815-0.726 9.206-0.242 12.598-0.726 33.916-17.201 54.267-20.834 26.165-44.818 37.551-79.704 38.52-3.876 0-5.329 0.242-11.386 6.541-3.876 4.119-4.845 5.329-4.845 21.562 0.242 33.19-16.231 49.422-28.103 61.051l-46.272 45.061c-18.655 12.356-36.582 12.598-48.21 12.598-3.149 0-6.299 0-8.237 0.484l-52.813 54.994c2.423 7.268 18.655 21.562 25.68 27.861 3.392 2.907 6.299 5.815 9.448 8.479 6.783 6.299 17.927 12.84 26.165 12.84 2.423 0 5.087-0.242 9.448-4.603 25.195-25.68 313.489-266.975 483.073-408.456l16.474-13.809 20.35 6.783c23.258 7.753 50.633 7.753 79.947 7.753 68.56 0 132.761-26.407 180.728-74.133 48.21-47.968 74.617-112.894 74.617-182.424 0-143.905-114.59-261.402-255.589-261.402zM822.097 215.427c-42.881 0-77.524-34.644-77.524-77.524s34.644-77.524 77.524-77.524 77.524 34.644 77.524 77.524-34.644 77.524-77.524 77.524zM822.097 99.14c-21.319 0-38.762 17.443-38.762 38.762s17.443 38.762 38.762 38.762 38.762-17.443 38.762-38.762-17.443-38.762-38.762-38.762z" />
<glyph unicode="&#xe92d;" glyph-name="key" d="M822.097 176.664c-21.319 0-38.762-17.443-38.762-38.762s17.443-38.762 38.762-38.762 38.762 17.443 38.762 38.762-17.443 38.762-38.762 38.762zM721.801 539.818c-32.221 0-63.231 0-92.302-9.933-125.008 104.416-454.971 380.111-480.167 405.792-11.628 11.871-24.468 16.231-37.066 16.231-21.077 0-41.185-12.598-52.571-23.258-16.959-15.989-62.019-64.927-49.664-77.524 37.066-37.309 66.38-64.2 81.643-79.462 11.628-11.628 32.464 1.938 47.484-7.995 13.324-8.722 24.226-23.984 35.37-35.128 12.84-13.082 21.804-18.897 21.562-38.035-0.242-20.108 1.212-33.432 15.263-48.453 11.386-12.114 22.046-18.412 38.52-18.655 22.288-0.484 36.097-5.815 50.633-23.984 13.809-17.201 5.087-34.402 11.871-53.298 4.361-12.356 38.762-43.85 43.608-48.695s26.649 0 32.221-5.573 41.669-38.277 44.092-49.422-7.268-21.804-4.845-32.948c2.907-13.567 17.443-29.314 25.68-42.154-16.474-37.551-25.68-78.978-25.68-122.828 0-165.951 131.791-300.407 294.108-300.407s294.35 134.456 294.35 300.407-131.791 295.32-294.108 295.32zM822.097 60.378c-42.881 0-77.524 34.644-77.524 77.524s34.644 77.524 77.524 77.524 77.524-34.644 77.524-77.524-34.644-77.524-77.524-77.524z" />
<glyph unicode="&#xe92e;" glyph-name="lock-outline" d="M764.045 525.552v174.493c0 139.183-112.844 252.045-252.007 252.045-139.241 0-252.085-112.864-252.085-252.045v-174.493h-135.717v-581.644h775.524v581.644h-135.717zM298.731 700.045c0 117.596 95.69 213.269 213.308 213.269 117.575 0 213.23-95.673 213.23-213.269v-174.493h-426.539v174.493zM860.986-17.315h-697.972v504.091h697.972v-504.091zM512 370.448c-42.831 0-77.552-34.722-77.552-77.552 0-36.134 24.715-66.501 58.165-75.11v-79.995h38.777v79.995c33.449 8.61 58.165 38.975 58.165 75.11 0 42.831-34.722 77.552-77.552 77.552zM512 254.118c-21.381 0-38.777 17.396-38.777 38.777s17.396 38.777 38.777 38.777 38.777-17.396 38.777-38.777-17.396-38.777-38.777-38.777z" />
<glyph unicode="&#xe92f;" glyph-name="lock" d="M764.045 525.552v174.493c0 139.183-112.844 252.045-252.007 252.045-139.241 0-252.085-112.864-252.085-252.045v-174.493h-135.717v-581.644h775.524v581.644h-135.717zM531.388 217.785v-79.995h-38.777v79.995c-33.449 8.61-58.165 38.975-58.165 75.11 0 42.831 34.722 77.552 77.552 77.552s77.552-34.722 77.552-77.552c0-36.134-24.715-66.501-58.165-75.11zM725.269 525.552h-426.539v174.493c0 117.596 95.69 213.269 213.308 213.269 117.575 0 213.23-95.673 213.23-213.269v-174.493zM512 331.671c-21.381 0-38.777-17.396-38.777-38.777s17.396-38.777 38.777-38.777 38.777 17.396 38.777 38.777-17.396 38.777-38.777 38.777z" />
<glyph unicode="&#xe930;" glyph-name="ios-backspace-outline" d="M790 768h-330c-93.4 0-146.4-69.4-204-127s-144.2-149.4-144.2-149.4c-9.8-11.2-15.8-25.6-15.8-41.8 0-16 6-30.6 15.8-42 0 0 68.6-75.2 144.2-151 75.6-75.6 113.4-129 204-129h330c77 0 138 65 138 142v360.2c0 77-61 138-138 138zM896 270c0-29-10.6-56.8-31-77.4-20.2-20.8-46.6-32.6-75-32.6h-330c-65.2 0-96.4 32.6-153 90.8l-171.4 178.4c-3.6 4.2-7.6 11.2-7.6 20.8 0 9.4 4 16.4 7.6 20.6l166.2 172.2c24.4 25.4 47.6 49 73.8 66.6 27.6 18.6 54.4 26.8 84.4 26.8h330c28.6 0 55-10.6 75.2-30.8s30.8-46.6 30.8-75.2v-360.2zM632.8 448l127.2 126.8-29.2 29.2-127.2-127-126.4 126.4-29.2-29.2 126.6-126.2-126.6-126.4 29.2-29 126.4 126.2 127.2-126.8 29.2 29z" />
<glyph unicode="&#xe931;" glyph-name="ios-backspace" d="M790 768h-330c-93.4 0-146.4-69.4-204-127s-144.2-149.4-144.2-149.4c-9.8-11.2-15.8-25.6-15.8-41.8 0-16 6-30.6 15.8-42 0 0 68.6-75.2 144.2-151 75.6-75.6 113.4-129 204-129h330c77 0 138 65 138 142v360.2c0 77-61 138-138 138zM730.8 292l-127.2 126.8-126.6-126.2-29 29 126.6 126.4-126.6 126.2 29.2 29.2 126.6-126.4 127.2 127 29.2-29.2-127.4-126.8 127.2-127-29.2-29z" />
<glyph unicode="&#xe932;" glyph-name="mail-open-outline" d="M512 832l-384-256v-512h768v512l-384 256zM864 96h-704v427.2l229.8-174.2-135.8-154.4 4-4 157.4 138.8 96.6-73.4 96.2 73.4 157.6-139 4 4-136 154.6 230 175.6v-428.6zM512 296.4l-306.6 235.6h178.6v6.4l-219.8 25.4-0.6 0.4 348.4 227.6 349.2-228-221.2-25.4v-6.4h180.8l-308.8-235.6z" />
<glyph unicode="&#xe933;" glyph-name="mail-open" d="M634 349.2l136-154.6-4-4-157.6 139-96.2-73.4-96.8 73.4-157.4-139-4 4 135.8 154.4-261.8 198v-483h768v485.2zM384 532h-178.6l306.6-235.6 308.8 235.6h-180.8v6.4l256 29.8v7.8l-384 256-384-256v-8.4l256-29.2z" />
<glyph unicode="&#xe934;" glyph-name="mail-outline" d="M128 704v-512h768v512h-768zM512 424.2l-325.6 247.8h651.2l-325.6-247.8zM160 224v427.8l230.2-175.2-136.2-154.6 4-4 157.8 139.2 96.2-73.2 96.2 73.2 157.8-139.2 4 4-136.2 154.8 230.2 175v-427.8h-704z" />
<glyph unicode="&#xe935;" glyph-name="ios-mail" d="M896 192v484.4l-262.2-199.6 136.2-154.8-4-4-157.8 139.2-96.2-73.2-96.2 73.2-157.8-139.2-4 4 136 154.8-262 199.2v-484zM879.4 704h-735.4l368-279.8z" />
<glyph unicode="&#xe936;" glyph-name="analytics-outline" d="M868.401 804.401c-196.735 196.735-515.824 196.735-712.802 0s-196.735-515.824 0-712.802c196.735-196.735 515.824-196.735 712.802 0 196.735 196.735 196.735 516.066 0 712.802zM185.401 774.599c180.018 180.018 473.182 180.018 653.2 0 92.068-92.068 136.891-213.453 134.952-334.353-7.026 11.145-55.967 85.284-127.199 85.284-67.598 0-102.487-63.236-125.503-104.909-3.392-6.299-6.784-12.115-9.691-17.202-28.105-47.246-67.112-73.655-104.425-70.99-32.951 2.423-61.056 27.378-78.985 70.747-22.532 54.271-71.716 112.662-130.107 120.9-27.62 3.876-69.294-2.18-109.755-52.576-7.995-9.933-16.96-23.018-27.136-38.523-25.682-38.039-64.206-95.46-93.764-100.306-50.88-8.237-88.676 29.559-95.218 35.373-4.846 4.119-10.661 10.419-17.687 18.414-18.171 137.86 25.44 282.504 131.318 388.14zM838.599 121.401c-180.018-180.018-473.182-180.018-653.2 0-58.633 58.633-98.125 129.138-118.477 203.762 16.96-13.811 46.761-32.224 86.011-32.224 6.542 0 13.568 0.484 20.594 1.696 46.034 7.511 86.738 68.082 119.689 116.781 9.449 14.053 18.171 27.136 25.198 35.858 23.502 29.074 48.457 42.158 74.139 38.523 31.255-4.361 75.351-39.25 99.579-97.399 23.986-57.421 63.721-91.099 112.178-94.491 52.333-3.634 104.909 30.043 140.525 89.888 3.392 5.573 6.784 11.629 10.176 18.171 20.836 37.797 46.761 85.042 91.342 85.042 26.894 0 50.638-17.687 65.902-32.467 17.929-17.444 21.806-21.806 31.255-35.373 8.237-11.629 15.749-21.078 24.956-40.462-14.053-94.249-57.421-184.863-129.865-257.307z" />
<glyph unicode="&#xe937;" glyph-name="analytics" d="M868.401 804.401c-196.735 196.735-515.824 196.735-712.802 0s-196.735-515.824 0-712.802c196.735-196.735 515.824-196.735 712.802 0 196.735 196.735 196.735 516.066 0 712.802zM185.401 774.599c180.018 180.018 473.182 180.018 653.2 0 92.068-92.068 136.891-213.453 134.952-334.353-7.026 11.387-55.967 85.284-127.199 85.284-67.598 0-102.487-63.236-125.503-104.909-3.392-6.299-6.784-12.115-9.691-17.202-28.105-47.246-67.112-73.655-104.425-70.99-32.951 2.423-61.056 27.378-78.985 70.747-22.532 54.271-71.716 112.662-130.107 120.9-27.62 3.876-69.294-2.18-109.755-52.576-7.995-9.933-16.96-23.018-27.136-38.523-25.682-38.039-64.206-95.46-93.764-100.306-50.88-8.237-88.676 29.559-95.218 35.373-4.846 4.119-10.661 10.419-17.444 18.171-18.414 138.102 25.198 282.747 131.076 388.383z" />
<glyph unicode="&#xe938;" glyph-name="planet-outline" d="M792.4 382.2c-2.2-9-4.6-18-7.8-26.8 11.6-9 22.8-17.8 33.6-26.6 72-58.2 118-114.4 106.4-114.4-15.8-1-55.2 2.2-142.2 34.2-24.4 9-50.4 19.4-77.6 31.2 39.4 45 63.2 104 63.2 168.4 0 141.4-114.6 256-256 256-114 0-210.4-74.4-243.6-177.2-24 17.2-46.4 34.2-66.6 50.4-72 58.2-95.2 90.4-102.4 104.4-8.6 14 65.2 1.8 152.2-30.2 13.6-5 27.8-10.4 42.2-16 5.6 6.6 11.6 13 17.8 19-131.8 55-228.4 75.4-245 45.8-18-31.8 61.6-113.4 193.6-206.8-2.6-14.8-4-29.8-4-45.4 0-141.4 114.6-256 256-256 64.6 0 123.6 23.8 168.6 63.4 148-65.2 259-91.4 277-59.6 16.4 29.4-50.6 101.4-165.4 186.2zM353.6 606.4c42.4 42.4 98.6 65.6 158.4 65.6s116-23.4 158.4-65.6c42.2-42.4 65.6-98.6 65.6-158.4 0-58.2-22-112.8-62-154.6-61.4 27.8-127.4 61.6-193.6 99-66 37.4-129 76.6-184.6 115 10.2 37 29.8 71 57.8 99zM512 224c-59.8 0-116 23.4-158.4 65.6-42.2 42.4-65.6 98.6-65.6 158.4 0 8.4 0.4 16.8 1.4 25 52.4-35.6 111.6-72.4 175.4-108.6s125.8-68 183.4-94.4c-39-29.8-86.4-46-136.2-46z" />
<glyph unicode="&#xe939;" glyph-name="planet" d="M792.4 382.2c-2.2-9-4.6-18-7.8-26.8 11.6-9 22.8-17.8 33.6-26.6 72-58.2 118-114.4 106.4-114.4-15.8-1-55.2 2.2-142.2 34.2-24.4 9-50.6 19.4-77.6 31.2 39.4 45 63.2 103.8 63.2 168.4 0 141.4-114.6 256-256 256-114 0-210.4-74.4-243.6-177.4-24 17.2-46.4 34.2-66.6 50.6-72 58.2-95.2 90.4-102.4 104.4-8.6 14 65.2 1.8 152.2-30.2 13.6-5 27.8-10.4 42.2-16 5.6 6.6 11.6 13 17.8 19-131.8 55-228.4 75.4-245 45.8-26.2-46.2 152.2-196.4 398.2-335.8 246-139.2 466.8-214.8 492.8-168.6 16.6 29.4-50.4 101.4-165.2 186.2zM256.2 455.4c0-2.4-0.2-4.8-0.2-7.4 0-141.4 114.6-256 256-256 51.6 0 99.6 15.2 139.8 41.4-65 28.8-132.8 59-207 101-67.6 38.4-134.2 83.4-188.6 121z" />
<glyph unicode="&#xe93a;" glyph-name="arrow-dropdown-circle" d="M512 951.999c-278.411 0-503.999-225.588-503.999-503.999s225.588-503.999 503.999-503.999 503.999 225.588 503.999 503.999-225.588 503.999-503.999 503.999zM512 321.031l225.83 243.276 31.016-33.438-256.845-276.715-256.845 276.715 31.016 33.438 225.83-243.276z" />
<glyph unicode="&#xe93b;" glyph-name="thumbs-down-outline" d="M428.6 864c77 0 160.4-8.2 225.2-16.2 43-5.2 68.2-15 92.8-24.2 31.8-12.2 62-23.6 133.4-23.6 8.8 0 16-7.2 16-16s-7.2-16-16-16c-77.4 0-111.6 13-144.8 25.8-23.6 9-46 17.6-85.2 22.4-97.2 12-223 22-330.8 8.2-74.8-9.4-112.2-25-124.4-54.6-4.2-10 1-21.8 5.4-32.2 3-7 5.8-13.2 5.8-19.6 0-11-8.2-17.8-17.8-25.6-12.6-10.4-28.2-23.2-28.2-41.6 0-18.2 9.6-29.6 18.8-40.6 7.4-9 15.2-18.2 15.2-30.2 0-11.2-5.8-19-10.6-25.2-6.4-8.4-13.4-17.8-13.4-42.8 0-17.6 9-25 19.2-33.6 9.2-7.6 28.4-23.6 11.8-47.6-14.6-21-5-45.2 4.8-56.2 10.6-12 16.4-15.6 67.2-12.6 34.4 2 108.4 13.6 157.4 21.2 22.4 3.6 38.6 6 44.8 6.6 9.8 1 23 2.4 35.6-0.8 16.6-4.4 27.6-15.8 31.8-33.2 3.8-15.6-3-29-12.2-47.8-7.4-15.2-17.8-36-27-66.8-14.6-48-19.4-120 2.6-159.6 5.4-9.8 13.8-15.6 25.2-17.4 12-1.8 22 1.8 24.6 3.8 3 5 8 25 12 41 6.6 26.2 14.6 64.8 25.8 89.4 16.4 36.2 69.4 84.8 122 131.4 8 7 14.8 13.2 19.6 17.6 14.8 13.6 31.6 38.2 46.4 60 12 17.6 22.4 33 31.2 41.6 18.8 18.8 45.4 31.2 67.4 31.2 8.8 0 16-7.2 16-16s-7.2-16-16-16c-11.4 0-30.4-7.4-44.6-21.8-6.6-6.6-16.8-21.4-27.4-37-15.8-23-33.6-49.2-51-65.4-5-4.8-12.2-11-20.2-18.2-34.6-30.6-99-87.6-114-120.8-10-22-17.8-59-24-84-7.6-30.6-11.6-45.6-18.4-53.6-9.2-11-26.8-15.8-49.8-15.8s-41.6 14.4-52.6 34.2c-23.4 42-25.4 118-5.4 184.4 10 33.4 21 55.4 29 71.6 6 12.2 10.8 21.8 9.8 26-2.4 9.6-7.4 12.4-32.8 9.8-5.4-0.6-23-3.4-43.2-6.4-49.6-7.8-124.4-19.4-160.4-21.6-52.2-3-72-0.2-92.8 23.4-20.4 23-29.6 63.2-7.4 95.4-1.6 1.4-3.8 3.4-5.8 5-11.8 9.8-31.2 25.8-31.2 58.6 0 35.8 12 51.6 20 62.2 1.4 1.8 3.2 4.4 3.8 5.6-1.2 2.2-4.8 6.6-7.6 10-10.4 12.4-26.2 31.4-26.2 61.2 0 33.6 25 54.2 39.8 66.4 1.4 1.2 3.2 2.6 4.8 4-0.6 1.2-1.2 2.6-1.6 3.8-5.6 13-15.2 34.6-5.6 57.4 21.8 52.4 88.2 66.8 150.4 74 33 3.4 72 7.4 112.8 7.4z" />
<glyph unicode="&#xe93c;" glyph-name="thumbs-down" d="M128 650.8c0-29.8 15.8-48.6 26.2-61.2 2.8-3.2 6.4-7.6 7.6-10-0.6-1.2-2.4-3.8-3.8-5.6-8-10.4-20-26.4-20-62.2 0-32.8 19.4-48.8 30.8-58.2 1.8-1.6 4.2-3.4 5.8-5-22.2-32.2-13-72.4 7.4-95.4 21-23.6 40.6-26.4 92.8-23.4 36 2.2 111 13.8 160.4 21.6 20.2 3.2 37.8 6 43.2 6.4 25.4 2.6 30.4 0 32.8-9.8 1-4.2-3.8-13.8-9.8-26-8-16.2-19-38.4-29-71.6-20.2-66.4-18-142.4 5.4-184.4 11-19.8 29.6-34.2 52.6-34.2s40.6 4.8 49.8 15.8c6.8 8 10.6 23.2 18.4 53.6 6.2 24.8 14 61.8 24 84 15 33.2 79.4 90.2 114 120.8 8.2 7.2 15.2 13.4 20.2 18.2 17.4 16.2 35.2 42.2 51 65.4 10.8 15.6 20.8 30.4 27.4 37 14.2 14.2 33.2 21.8 44.6 21.8 8.8 0 16 7.2 16 16v319.6c0 8.8-7.2 16-16 16-71.4 0-101.4 11.4-133.4 23.6-24.4 9.4-49.8 19-92.8 24.2-64.8 8-148.4 16.2-225.2 16.2-40.8 0-79.8-4-113.2-7.8-62-7.2-128.4-21.6-150.4-74-9.4-22.8 0-44.4 5.6-57.4 0.6-1.2 1-2.4 1.6-3.8-1.6-1.2-3.2-2.8-4.8-4-14.2-12.2-39.2-32.6-39.2-66.2z" />
<glyph unicode="&#xe93d;" glyph-name="thumbs-up-outline" d="M595.4 32c-77 0-160.4 8.2-225.2 16.2-43 5.2-68.2 15-92.8 24.2-31.8 12.2-62 23.6-133.4 23.6-8.8 0-16 7.2-16 16s7.2 16 16 16c77.4 0 111.6-13 144.8-25.8 23.6-9 46-17.6 85.2-22.4 97.2-12 223-22 330.8-8.2 74.8 9.4 112.2 25 124.4 54.6 4.2 10-1 21.8-5.4 32.2-3 7-5.8 13.2-5.8 19.6 0 11 8.2 17.8 17.8 25.6 12.6 10.2 28.2 23 28.2 41.6 0 18.2-9.6 29.6-18.8 40.6-7.4 9-15.2 18.2-15.2 30.2 0 11.2 5.8 19 10.6 25.2 6.4 8.4 13.4 17.8 13.4 42.8 0 17.6-9 25-19.2 33.6-9.2 7.6-28.4 23.6-11.8 47.6 14.6 21 5 45.2-4.8 56.2-10.6 12-16.4 15.6-67.2 12.6-34.4-2-108.4-13.6-157.4-21.2-22.4-3.6-38.6-6-44.8-6.6-9.8-1-23-2.4-35.6 0.8-16.6 4.4-27.6 15.8-31.8 33.2-3.8 15.6 3 29 12.2 47.8 7.4 15.2 17.8 36 27 66.8 14.6 48 19.4 120-2.6 159.6-5.4 9.8-13.8 15.6-25.2 17.4-12 1.8-22-1.8-24.6-3.8-3-5-8-25-12-41-6.6-26.2-14.6-64.8-25.8-89.4-16.4-36.2-69.4-84.8-122-131.4-8-7-14.8-13.2-19.6-17.6-14.8-13.6-31.6-38.2-46.4-60-12-17.6-22.4-33-31.2-41.6-18.8-18.8-45.4-31.2-67.4-31.2-8.8 0-16 7.2-16 16s7.2 16 16 16c11.4 0 30.4 7.4 44.6 21.8 6.6 6.6 16.8 21.4 27.4 37 15.8 23 33.6 49.2 51 65.4 5 4.8 12.2 11 20.2 18.2 34.6 30.6 99 87.6 114 120.8 10 22 17.8 59 24 84 7.6 30.6 11.6 45.6 18.4 53.6 9.2 11 26.8 15.8 49.8 15.8s41.6-14.4 52.6-34.2c23.4-42 25.4-118 5.4-184.4-10-33.4-21-55.4-29-71.6-6-12.2-10.8-21.8-9.8-26 2.4-9.6 7.4-12.4 32.8-9.8 5.4 0.6 23 3.4 43.2 6.4 49.6 7.8 124.4 19.4 160.4 21.6 52.2 3 72 0.2 92.8-23.4 20.4-23 29.6-63.2 7.4-95.4 1.6-1.4 3.8-3.4 5.8-5 11.6-9.6 30.8-25.6 30.8-58.2 0-35.8-12-51.6-20-62.2-1.4-1.8-3.2-4.4-3.8-5.6 1.2-2.2 4.8-6.6 7.6-10 10.4-12.4 26.2-31.4 26.2-61.2 0-33.6-25-54.2-39.8-66.4-1.4-1.2-3.2-2.6-4.8-4 0.6-1.2 1.2-2.6 1.6-3.8 5.6-13 15.2-34.6 5.6-57.4-21.8-52.4-88.2-66.8-150.4-74-32.6-3.8-71.6-7.8-112.4-7.8z" />
<glyph unicode="&#xe93e;" glyph-name="thumbs-up" d="M896 245.2c0 29.8-15.8 48.6-26.2 61.2-2.8 3.2-6.4 7.6-7.6 10 0.6 1.2 2.4 3.8 3.8 5.6 8 10.4 20 26.4 20 62.2 0 32.8-19.4 48.8-30.8 58.2-1.8 1.6-4.2 3.4-5.8 5 22.2 32.2 13 72.4-7.4 95.4-21 23.6-40.6 26.4-92.8 23.4-36-2.2-111-13.8-160.4-21.6-20.2-3.2-37.8-6-43.2-6.4-25.4-2.6-30.4 0-32.8 9.8-1 4.2 3.8 13.8 9.8 26 8 16.2 19 38.4 29 71.6 20.2 66.4 18 142.4-5.4 184.4-11 19.8-29.6 34.2-52.6 34.2s-40.6-4.8-49.8-15.8c-6.8-8-10.6-23.2-18.4-53.6-6.2-24.8-14-61.8-24-84-15-33.2-79.4-90.2-114-120.8-8.2-7.2-15.2-13.4-20.2-18.2-17.4-16.2-35.2-42.2-51-65.4-10.8-15.6-20.8-30.4-27.4-37-14.2-14.2-33.2-21.8-44.6-21.8-8.8 0-16-7.2-16-16v-319.6c0-8.8 7.2-16 16-16 71.4 0 101.4-11.4 133.4-23.6 24.4-9.4 49.8-19 92.8-24.2 64.8-8 148.4-16.2 225.2-16.2 40.8 0 79.8 4 113.2 7.8 62 7.2 128.4 21.6 150.4 74 9.4 22.8 0 44.4-5.6 57.4-0.6 1.2-1 2.4-1.6 3.8 1.6 1.2 3.2 2.8 4.8 4 14.2 12.2 39.2 32.6 39.2 66.2z" />
</font>
</defs>
</svg>
